<svg xmlns="http://www.w3.org/2000/svg" viewBox="0 0 32 32" fill="#4f46e5">
  <!-- Brain outline -->
  <path d="M16 4c-2.5 0-4.5 1-6 2.5C8.5 5.5 6.5 5 4.5 6c-2 1-3 3-2.5 5.5.5 2.5 2 4.5 3.5 6v4c0 3 2 5.5 5 6h12c3-.5 5-3 5-6v-4c1.5-1.5 3-3.5 3.5-6 .5-2.5-.5-4.5-2.5-5.5-2-1-4-.5-5.5.5C20.5 5 18.5 4 16 4z"/>
  <!-- Left hemisphere details -->
  <path d="M6 12c1-1 2-2 4-2s3 1 4 2" stroke="white" stroke-width="0.5" fill="none"/>
  <path d="M5 16c1.5-1 3-1.5 4.5-1s2.5 1.5 3.5 2.5" stroke="white" stroke-width="0.5" fill="none"/>
  <!-- Right hemisphere details -->
  <path d="M18 12c1-1 2-2 4-2s3 1 4 2" stroke="white" stroke-width="0.5" fill="none"/>
  <path d="M19 16c1.5-1 3-1.5 4.5-1s2.5 1.5 3.5 2.5" stroke="white" stroke-width="0.5" fill="none"/>
  <!-- Central division -->
  <line x1="16" y1="8" x2="16" y2="24" stroke="white" stroke-width="0.8"/>
  <!-- Small neural dots -->
  <circle cx="10" cy="14" r="0.8" fill="white"/>
  <circle cx="22" cy="14" r="0.8" fill="white"/>
  <circle cx="8" cy="20" r="0.8" fill="white"/>
  <circle cx="24" cy="20" r="0.8" fill="white"/>
</svg>
